# xmcd CD database file
#
# Track frame offsets:
#	150
#	21400
#	45445
#	66637
#
# Disc length: 1206 seconds
#
# Revision: 0
# Processed by: cddbd v1.5.1PL2 Copyright (c) Steve Scherf et al.
# Submitted via: CDex 1.51
#
DISCID=3404b404
DTITLE=谷村新司 - 陽はまた昇る
DYEAR=1992
DGENRE=JPop
TTITLE0=陽はまた昇る
TTITLE1=ファー・アウェイ
TTITLE2=陽はまた昇る（オリジナル・カラオケ）
TTITLE3=ファー・アウェイ（オリジナル・カラオケ）
EXTD=YEAR: 1992/7/25
EXTT0=
EXTT1=
EXTT2=
EXTT3=
PLAYORDER=
